<?xml version="1.0"?>
<svg xmlns="http://www.w3.org/2000/svg" height="512px" viewBox="-18 0 465 465.76035" width="512px" class=""><g><path d="m130.964844 4.730469c-6.308594-6.308594-16.539063-6.308594-22.847656 0-6.308594 6.308593-6.308594 16.539062 0 22.847656 6.308593 6.308594 16.539062 6.308594 22.847656-.003906 3.042968-3.019531 4.753906-7.132813 4.753906-11.421875 0-4.285156-1.710938-8.398438-4.753906-11.421875zm0 0" data-original="#000000" class="active-path" data-old_color="#FFA300" fill="#FF6D00"/><path d="m23.953125 73.46875c-7.703125.003906-14.332031 5.449219-15.828125 13.003906-1.5 7.558594 2.550781 15.117188 9.667969 18.0625 7.117187 2.941406 15.324219.449219 19.597656-5.957031 4.277344-6.40625 3.433594-14.941406-2.015625-20.386719-3.027344-3.03125-7.140625-4.730468-11.421875-4.722656zm0 0" data-original="#000000" class="active-path" data-old_color="#FFA300" fill="#FF6D00"/><path d="m135.375 461.035156c6.308594-6.308594 6.308594-16.535156 0-22.84375s-16.539062-6.308594-22.847656 0-6.308594 16.535156 0 22.84375c6.3125 6.300782 16.535156 6.300782 22.847656 0zm0 0" data-original="#000000" class="active-path" data-old_color="#FFA300" fill="#FF6D00"/><path d="m166.222656 50.667969 18.046875-18.046875 18.050781 18.046875-18.050781 18.046875zm0 0" data-original="#000000" class="active-path" data-old_color="#FFA300" fill="#FF6D00"/><path d="m105.699219 117.371094 22.226562-19.066406-24.015625-5.507813zm0 0" data-original="#000000" class="active-path" data-old_color="#FFA300" fill="#FF6D00"/><path d="m341.933594 245.65625-10.890625-24.894531-15.574219 1.144531c-2.054688.15625-4.042969-.757812-5.261719-2.417969-6.332031-8.566406-14.105469-15.96875-22.972656-21.875-1.71875-1.148437-2.726563-3.101562-2.667969-5.167969l.457032-15.5625-25.371094-9.765624-9.273438 10.667968v11.304688c.023438.34375.015625.691406-.023437 1.03125-.003907.03125.03125.0625.023437.09375-.054687.324218-.140625.644531-.25.957031-.015625.035156-.015625.070313-.03125.097656-.117187.304688-.257812.597657-.421875.875-.023437.039063-.042969.078125-.070312.117188-.167969.269531-.359375.527343-.570313.769531-.015625.019531-.027344.039062-.042968.058594l-15.210938 16.996094c36.761719 1.773437 65.871094 31.714843 66.609375 68.515624.734375 36.796876-27.148437 67.882813-63.8125 71.128907-36.664063 3.246093-69.578125-22.453125-75.316406-58.808594l-7.882813 8.636719v44.476562c5.890625 7.042969 12.746094 13.222656 20.359375 18.347656 1.742188 1.140626 2.777344 3.089844 2.746094 5.171876l-.421875 15.558593 25.316406 9.769531 10.0625-11.652343c1.320313-1.527344 3.320313-2.292969 5.324219-2.03125 10.625 1.382812 21.398437 1.105469 31.9375-.828125 1.980469-.359375 4.015625.296875 5.410156 1.75l10.785157 11.25 24.902343-10.890625-1.144531-15.574219c-.152344-2.050781.761719-4.039062 2.414062-5.261719 8.570313-6.328125 15.972657-14.101562 21.875-22.96875 1.148438-1.722656 3.101563-2.730469 5.167969-2.667969l15.566407.457032 9.761718-25.300782-11.652344-10.058593c-1.527343-1.320313-2.289062-3.316407-2.03125-5.316407 1.382813-10.625 1.105469-21.398437-.824218-31.933593-.363282-1.984375.296875-4.015625 1.75-5.410157zm0 0" data-original="#000000" class="active-path" data-old_color="#FFA300" fill="#FF6D00"/><path d="m206.089844 143.882812c5.160156-6 4.792968-15.703124-1.109375-21.609374-6.316407-6.292969-16.53125-6.292969-22.847657 0-5.898437 5.90625-6.273437 15.613281-1.109374 21.613281zm0 0" data-original="#000000" class="active-path" data-old_color="#FFA300" fill="#FF6D00"/><path d="m141.378906 297.265625c.058594-1.496094.65625-2.917969 1.683594-4l71.890625-80.222656c.015625-.019531.074219-.140625.09375-.160157l16.054687-18h-223.121093l87.875 98.273438c.988281 1.140625 1.527343 2.597656 1.523437 4.109375v99.988281l44-33.921875zm0 0" data-original="#000000" class="active-path" data-old_color="#FFA300" fill="#FF6D00"/><path d="m172.609375 278.417969c-.015625.527343-.050781 1.058593-.050781 1.582031 0 32.035156 25.96875 58 58 58 32.035156 0 58-25.964844 58-58 0-32.03125-25.964844-58-58-58-2.652344.003906-5.304688.183594-7.933594.546875zm0 0" data-original="#000000" class="active-path" data-old_color="#FFA300" fill="#FF6D00"/><path d="m.378906 155.882812h238v27h-238zm0 0" data-original="#000000" class="active-path" data-old_color="#FFA300" fill="#FF6D00"/><path d="m388.378906 151.148438 20.417969-20.414063c1.558594-1.558594 2.136719-3.847656 1.503906-5.960937-.628906-2.113282-2.367187-3.710938-4.527343-4.160157l-60-12.46875c-1.980469-.414062-4.035157.199219-5.464844 1.628907-1.433594 1.429687-2.046875 3.484374-1.632813 5.464843l12.46875 60c.449219 2.160157 2.042969 3.898438 4.15625 4.527344 2.113281.632813 4.398438.054687 5.960938-1.503906l18.621093-18.625c27.757813 34.980469 41.253907 79.160156 37.78125 123.679687-3.132812 40.808594-19.925781 79.214844-46.074218 105.363282-17.050782 17.050781-39.480469 30.285156-64.859375 38.265624-26.375 8.28125-54.292969 10.417969-81.621094 6.25-3.273437-.503906-6.339844 1.738282-6.84375 5.015626-.507813 3.273437 1.738281 6.339843 5.011719 6.84375 9.613281 1.480468 19.324218 2.222656 29.050781 2.21875 19.671875.003906 39.230469-2.992188 58-8.878907 27.214844-8.5625 51.332031-22.820312 69.746094-41.230469 28.144531-28.144531 46.199219-69.300781 49.550781-112.929687 3.722656-47.699219-10.800781-95.035156-40.640625-132.4375-.183594-.230469-.386719-.449219-.605469-.648437zm0 0" data-original="#000000" class="active-path" data-old_color="#FFA300" fill="#FF6D00"/></g> </svg>
