<?xml version="1.0" encoding="iso-8859-1"?>
<!-- Generator: Adobe Illustrator 19.0.0, SVG Export Plug-In . SVG Version: 6.00 Build 0)  -->
<svg xmlns="http://www.w3.org/2000/svg" xmlns:xlink="http://www.w3.org/1999/xlink" version="1.1" id="Capa_1" x="0px" y="0px" viewBox="0 0 480.054 480.054" style="enable-background:new 0 0 480.054 480.054;" xml:space="preserve" width="512px" height="512px">
<g>
	<g>
		<g>
			<rect x="320" y="352.029" width="16" height="16" fill="#FFDA44"/>
			<rect x="352" y="320.029" width="16" height="16" fill="#FFDA44"/>
			<rect x="352" y="352.029" width="16" height="16" fill="#FFDA44"/>
			<rect x="352" y="288.029" width="16" height="16" fill="#FFDA44"/>
			<rect x="352" y="256.029" width="16" height="16" fill="#FFDA44"/>
			<rect x="144" y="128.029" width="16" height="16" fill="#FFDA44"/>
			<rect x="176" y="128.029" width="16" height="16" fill="#FFDA44"/>
			<rect x="208" y="128.029" width="16" height="16" fill="#FFDA44"/>
			<rect x="144" y="192.029" width="16" height="16" fill="#FFDA44"/>
			<rect x="144" y="160.029" width="16" height="16" fill="#FFDA44"/>
			<rect x="144" y="224.029" width="16" height="16" fill="#FFDA44"/>
			<path d="M304,280.029c0-13.255-10.745-24-24-24H40c-13.255,0-24,10.745-24,24v152H0v24c0,13.255,10.745,24,24,24h272     c13.255,0,24-10.745,24-24v-24h-16V280.029z M32,280.029c0-4.418,3.582-8,8-8h240c4.418,0,8,3.582,8,8v152H32V280.029z      M304,456.029c0,4.418-3.582,8-8,8H24c-4.418,0-8-3.582-8-8v-8h288V456.029z" fill="#FFDA44"/>
			<path d="M40,424.029h240v-144H40V424.029z M56,296.029h208v112H56V296.029z" fill="#FFDA44"/>
			<path d="M476.575,91.504c-4.691-19.129-14.021-36.808-27.167-51.475c-25.714-28.798-63.732-43.436-102.12-39.32     c-5.307,0.606-10.567,1.571-15.744,2.888c-64.324,15.774-103.681,80.707-87.907,145.031s80.707,103.681,145.031,87.907     C452.992,220.761,492.349,155.828,476.575,91.504z M290.152,43.029c0.52-0.472,1.088-0.872,1.6-1.336     c2.072-1.808,4.184-3.568,6.4-5.2c1-0.736,2.056-1.4,3.08-2.104c1.8-1.24,3.624-2.464,5.496-3.584c1.176-0.704,2.4-1.344,3.592-2     c1.816-0.992,3.648-1.944,5.52-2.824c1.272-0.6,2.552-1.16,3.848-1.704c0.64-0.272,1.296-0.496,1.944-0.752     c-5.616,7.956-10.187,16.6-13.6,25.72c-6.136-1.63-12.155-3.672-18.016-6.112L290.152,43.029z M278.68,55.429     c7.845,3.754,16.008,6.803,24.392,9.112c-4.113,15.511-6.417,31.447-6.864,47.488h-39.84     C257.978,91.355,265.75,71.639,278.68,55.429z M256.368,128.029h39.84c0.448,16.041,2.751,31.977,6.864,47.488     c-8.384,2.312-16.546,5.361-24.392,9.112C265.748,168.419,257.976,148.703,256.368,128.029z M319.68,215.773     c-1.28-0.544-2.568-1.096-3.824-1.688c-1.888-0.888-3.744-1.856-5.6-2.856c-1.184-0.64-2.4-1.272-3.528-1.96     c-1.912-1.144-3.76-2.4-5.6-3.656c-0.992-0.68-2.008-1.32-2.984-2.04c-2.28-1.688-4.472-3.504-6.624-5.392     c-0.448-0.392-0.928-0.736-1.376-1.144l-0.112-0.112c5.862-2.439,11.88-4.481,18.016-6.112c3.413,9.12,7.984,17.764,13.6,25.72     C320.992,216.269,320.328,216.045,319.68,215.773z M352,222.349c-10.568-4.24-20.8-16.608-28.32-35.144     c9.362-1.627,18.824-2.608,28.32-2.936V222.349z M352,168.261c-11.234,0.367-22.424,1.59-33.472,3.656     c-3.795-14.336-5.918-29.064-6.328-43.888H352V168.261z M352,112.029h-39.8c0.411-14.824,2.532-29.55,6.32-43.888     c11.048,2.087,22.242,3.315,33.48,3.672V112.029z M352,55.789c-9.497-0.336-18.959-1.325-28.32-2.96     c7.52-18.512,17.752-30.88,28.32-35.12V55.789z M400.312,24.285c1.288,0.544,2.576,1.096,3.832,1.688     c1.888,0.888,3.744,1.856,5.6,2.856c1.184,0.64,2.4,1.272,3.528,1.96c1.912,1.144,3.76,2.4,5.6,3.656     c0.992,0.68,2.016,1.32,2.984,2.04c2.272,1.688,4.456,3.496,6.6,5.376c0.456,0.4,0.952,0.752,1.4,1.16l0.112,0.112     c-5.862,2.439-11.88,4.481-18.016,6.112c-3.414-9.12-7.984-17.764-13.6-25.72C399.008,23.789,399.672,24.013,400.312,24.285z      M368,17.709c10.568,4.24,20.8,16.608,28.32,35.144c-9.362,1.627-18.824,2.608-28.32,2.936V17.709z M368,71.813     c11.235-0.358,22.426-1.586,33.472-3.672c3.795,14.336,5.918,29.064,6.328,43.888H368V71.813z M368,128.029h39.8     c-0.41,14.824-2.533,29.552-6.328,43.888c-11.048-2.067-22.238-3.289-33.472-3.656V128.029z M368,222.349v-38.08     c9.496,0.328,18.959,1.309,28.32,2.936C388.8,205.741,378.568,218.109,368,222.349z M429.848,197.029     c-0.52,0.472-1.088,0.872-1.6,1.336c-2.072,1.808-4.184,3.568-6.4,5.2c-1,0.736-2.048,1.4-3.072,2.096     c-1.808,1.248-3.632,2.472-5.512,3.592c-1.176,0.704-2.4,1.344-3.584,2c-1.816,0.992-3.648,1.944-5.52,2.824     c-1.272,0.6-2.552,1.16-3.848,1.704c-0.64,0.272-1.296,0.496-1.944,0.752c5.616-7.956,10.187-16.6,13.6-25.72     c6.136,1.63,12.155,3.672,18.016,6.112L429.848,197.029z M441.32,184.629c-7.845-3.754-16.007-6.803-24.392-9.112     c4.113-15.511,6.417-31.447,6.864-47.488h39.84C462.022,148.702,454.25,168.418,441.32,184.629z M423.792,112.029     c-0.447-16.041-2.751-31.977-6.864-47.488c8.384-2.312,16.546-5.361,24.392-9.112c12.932,16.21,20.704,35.926,22.312,56.6     H423.792z" fill="#FFDA44"/>
		</g>
	</g>
</g>
<g>
</g>
<g>
</g>
<g>
</g>
<g>
</g>
<g>
</g>
<g>
</g>
<g>
</g>
<g>
</g>
<g>
</g>
<g>
</g>
<g>
</g>
<g>
</g>
<g>
</g>
<g>
</g>
<g>
</g>
</svg>
