<svg id="Layer_1" data-name="Layer 1" xmlns="http://www.w3.org/2000/svg" viewBox="0 0 301.5 144.43"><defs><style>.cls-1{fill:#d6d4d4;}.cls-2{fill:#ffbd03;}.cls-3{fill:#ffbc00;}</style></defs><title>logo</title><path class="cls-1" d="M111.07,187.77H58.73q1.71,9.44,7.77,13.79a22.15,22.15,0,0,0,13.2,4.35q11,0,18.44-9.15l9.44,7.14Q96.94,217.66,79.1,217.66a30.83,30.83,0,0,1-22.9-9.37Q47,198.92,47,185a31.22,31.22,0,0,1,9.33-22.57A30.64,30.64,0,0,1,79.1,152.9a30.52,30.52,0,0,1,22.68,9.7Q111.22,172.31,111.07,187.77Zm-51-10.33H97.54Q91.29,164.8,79.1,164.8,65.79,164.8,60.07,177.44Z" transform="translate(-35 -95)"/><path class="cls-2" d="M115.5,121.4h50.87l-2.21,14.66h-17l-10,68.32H120.3l9.86-68.32H113.48Z" transform="translate(-35 -95)"/><path class="cls-2" d="M175.16,121.4h17.56L219.27,177l8.15-55.55h17l-12.18,83H216.29l-27.81-57.6-8.4,57.6H163Z" transform="translate(-35 -95)"/><path class="cls-2" d="M257.57,121.4h19.66q28.5,0,28.5,21.23,0,11.69-11.75,19.28,12.77,6,12.77,18.9a19.73,19.73,0,0,1-9.32,17.35q-9.32,6.23-26.26,6.23H245ZM267.71,168l-3.38,22.63h8.53q7.65,0,12.36-3.07t4.71-7.93a10.11,10.11,0,0,0-4.39-8.25A17.11,17.11,0,0,0,274.78,168Zm4.92-32.93-3,19.84h6.44a17.23,17.23,0,0,0,10.1-2.78q4-2.78,4-7a9,9,0,0,0-3.41-7.36q-3.41-2.75-9.29-2.75Z" transform="translate(-35 -95)"/><path class="cls-3" d="M323,239.43H48.5A13.52,13.52,0,0,1,35,225.93V108.5A13.52,13.52,0,0,1,48.5,95H323a13.52,13.52,0,0,1,13.5,13.5V225.93A13.51,13.51,0,0,1,323,239.43ZM48.5,98A10.51,10.51,0,0,0,38,108.5V225.93a10.51,10.51,0,0,0,10.5,10.5H323a10.51,10.51,0,0,0,10.5-10.5V108.5A10.51,10.51,0,0,0,323,98Z" transform="translate(-35 -95)"/></svg>